<?xml version="1.0" standalone="no"?><!DOCTYPE svg PUBLIC "-//W3C//DTD SVG 1.1//EN" "http://www.w3.org/Graphics/SVG/1.1/DTD/svg11.dtd"><svg height="512" node-id="1" sillyvg="true" template-height="512" template-width="512" version="1.1" viewBox="0 0 512 512" width="512" xmlns="http://www.w3.org/2000/svg" xmlns:xlink="http://www.w3.org/1999/xlink"><defs node-id="216"></defs><g node-id="765"><g node-id="769"><path d="M 501.53 205.82 C 504.57 207.73 510.66 212.50 511.75 216.66 C 512.81 220.67 510.29 225.87 508.38 229.99 C 506.60 233.84 462.25 327.09 458.63 334.73 C 452.79 347.05 447.32 360.59 443.50 371.03 C 437.19 388.19 429.78 406.97 423.14 425.03 C 421.18 430.35 419.35 438.73 414.08 442.93 C 409.36 446.67 401.12 444.75 394.56 443.43 C 387.18 441.93 380.47 439.98 374.31 438.03 C 360.91 433.76 346.63 428.92 333.30 423.81 C 325.15 420.69 318.58 417.68 312.37 415.22 C 298.91 409.88 285.43 404.57 270.95 398.35 C 260.45 393.84 251.03 387.12 251.38 377.32 C 251.54 373.16 253.36 368.08 254.79 363.01 C 256.17 358.16 257.41 353.09 258.96 348.59 C 262.41 338.56 266.84 328.72 270.94 319.37 C 283.78 290.01 295.22 260.37 308.29 231.11 C 316.64 212.43 327.50 191.26 337.53 171.86 C 344.04 159.28 353.73 144.28 365.03 143.92 C 369.97 143.76 376.03 146.16 381.56 147.96 C 398.09 153.31 415.70 162.46 432.50 171.11 C 450.76 180.50 466.27 187.03 483.89 195.94 C 489.85 198.95 495.66 202.12 501.53 205.82 Z" fill="#b9d5e8" fill-rule="evenodd" group-id="1,5" node-id="224" stroke="none" target-height="302.90695" target-width="261.77698" target-x="251.031" target-y="143.764"></path></g><g node-id="770"><g node-id="779"><g node-id="801"><path d="M 486.94 237.65 C 487.19 237.08 487.43 236.50 487.67 235.92 C 483.92 233.96 479.95 232.22 476.22 230.33 C 459.12 221.69 443.81 214.00 426.34 205.82 C 415.70 200.85 404.78 196.15 393.32 190.74 C 388.61 188.51 383.92 186.32 376.82 183.20 C 372.58 181.34 362.42 175.78 360.31 176.64 C 358.19 177.50 355.35 182.61 356.20 184.66 C 356.95 186.46 360.14 187.61 363.55 189.29 C 372.20 193.56 380.81 197.94 388.15 201.32 C 416.21 214.25 443.22 229.13 470.35 242.41 C 473.89 244.15 478.24 246.58 481.73 248.07 C 483.58 244.65 485.43 241.23 486.94 237.65 Z" fill="#1a4e72" fill-rule="evenodd" group-id="1,6,15,37" node-id="233" stroke="none" target-height="72.29599" target-width="132.31296" target-x="355.354" target-y="175.77602"></path></g><g node-id="802"><path d="M 475.02 261.75 C 470.36 258.92 465.01 256.70 460.09 254.22 C 443.00 245.57 427.69 237.88 410.21 229.71 C 399.58 224.73 388.65 220.03 377.21 214.62 C 372.49 212.39 367.80 210.20 360.70 207.08 C 356.47 205.22 346.29 199.66 344.19 200.52 C 342.07 201.39 339.24 206.49 340.08 208.54 C 340.84 210.34 344.02 211.50 347.43 213.18 C 356.08 217.44 364.69 221.82 372.03 225.20 C 400.09 238.14 427.10 253.01 454.23 266.29 C 459.50 268.87 466.55 273.00 469.91 273.28 C 471.66 269.46 473.31 265.58 475.02 261.75 Z" fill="#1a4e72" fill-rule="evenodd" group-id="1,6,15,38" node-id="238" stroke="none" target-height="73.62599" target-width="135.78302" target-x="339.235" target-y="199.658"></path></g><g node-id="803"><path d="M 463.44 286.33 C 460.61 284.96 457.72 283.65 454.97 282.25 C 437.88 273.61 422.56 265.92 405.09 257.74 C 394.45 252.77 383.53 248.08 372.08 242.66 C 367.36 240.44 362.67 238.24 355.58 235.12 C 351.33 233.26 341.17 227.70 339.06 228.56 C 336.94 229.43 334.11 234.54 334.96 236.59 C 335.71 238.39 338.90 239.54 342.30 241.21 C 350.95 245.48 359.57 249.86 366.90 253.24 C 394.96 266.18 421.97 281.05 449.11 294.33 C 451.52 295.51 454.30 297.02 456.93 298.32 C 459.15 294.36 461.33 290.36 463.44 286.33 Z" fill="#1a4e72" fill-rule="evenodd" group-id="1,6,15,39" node-id="243" stroke="none" target-height="70.62001" target-width="129.33798" target-x="334.107" target-y="227.701"></path></g><g node-id="804"><path d="M 449.51 311.31 C 446.01 309.51 442.32 307.89 438.84 306.13 C 421.76 297.49 406.45 289.81 388.97 281.63 C 378.33 276.66 367.41 271.95 355.96 266.55 C 351.24 264.32 346.55 262.12 339.46 259.00 C 335.22 257.14 325.05 251.58 322.94 252.44 C 320.81 253.30 317.98 258.42 318.84 260.46 C 319.58 262.26 322.78 263.41 326.19 265.09 C 334.83 269.35 343.44 273.73 350.79 277.12 C 378.84 290.05 405.86 304.93 432.98 318.21 C 435.98 319.68 439.55 321.63 442.69 323.12 C 444.95 319.18 447.24 315.25 449.51 311.31 Z" fill="#1a4e72" fill-rule="evenodd" group-id="1,6,15,40" node-id="248" stroke="none" target-height="71.540985" target-width="131.531" target-x="317.984" target-y="251.57602"></path></g><path d="M 439.49 336.71 C 439.73 336.14 439.97 335.57 440.22 334.98 C 436.47 333.03 432.50 331.28 428.76 329.39 C 411.67 320.75 396.36 313.06 378.88 304.89 C 368.25 299.92 357.32 295.22 345.87 289.81 C 341.15 287.58 336.47 285.38 329.37 282.25 C 325.13 280.40 314.96 274.84 312.86 275.70 C 310.74 276.57 307.89 281.68 308.75 283.73 C 309.50 285.53 312.69 286.68 316.09 288.35 C 324.74 292.62 333.36 296.99 340.70 300.38 C 368.76 313.31 395.77 328.19 422.90 341.47 C 426.44 343.20 430.79 345.64 434.28 347.14 C 436.12 343.71 437.97 340.29 439.49 336.71 Z" fill="#1a4e72" fill-rule="evenodd" group-id="1,6,15,41" node-id="253" stroke="none" target-height="72.29498" target-width="132.32205" target-x="307.895" target-y="274.844"></path></g><g node-id="780"><g node-id="806"><g node-id="848"><path d="M 369.39 156.76 C 371.07 155.38 373.25 154.50 375.22 154.51 C 377.92 154.53 386.93 156.95 385.05 160.77 C 383.30 164.33 369.75 161.47 369.39 156.76 Z" fill="#ffffff" fill-rule="evenodd" group-id="1,6,16,42,84" node-id="263" stroke="none" target-height="9.832993" target-width="17.54004" target-x="369.388" target-y="154.496"></path></g><g node-id="849"><path d="M 361.16 159.11 C 358.87 161.57 354.51 164.48 352.36 162.89 C 347.27 159.12 361.43 152.61 361.16 159.11 Z" fill="#ffffff" fill-rule="evenodd" group-id="1,6,16,42,85" node-id="268" stroke="none" target-height="11.875" target-width="14.165009" target-x="347.26898" target-y="152.608"></path></g><path d="M 371.85 167.39 C 371.47 167.98 371.30 168.54 371.56 169.04 C 369.20 171.07 366.54 171.21 363.53 169.21 C 363.53 168.58 363.70 167.93 363.52 167.34 C 365.86 165.27 369.52 164.07 371.85 167.39 Z" fill="#ffffff" fill-rule="evenodd" group-id="1,6,16,42,86" node-id="273" stroke="none" target-height="7.1419983" target-width="8.32901" target-x="363.517" target-y="164.07"></path></g><g node-id="807"><g node-id="851"><path d="M 500.27 215.73 C 497.89 224.13 483.36 213.50 485.91 209.07 C 488.52 204.52 498.93 210.98 500.27 215.73 Z" fill="#ffffff" fill-rule="evenodd" group-id="1,6,16,43,87" node-id="281" stroke="none" target-height="19.608002" target-width="16.91098" target-x="483.359" target-y="204.521"></path></g><g node-id="852"><path d="M 471.72 198.68 C 476.12 201.23 479.21 202.65 477.28 205.96 C 474.27 211.16 455.12 201.85 458.04 196.36 C 460.38 191.94 467.61 196.32 471.72 198.68 Z" fill="#ffffff" fill-rule="evenodd" group-id="1,6,16,43,88" node-id="286" stroke="none" target-height="19.210999" target-width="24.094025" target-x="455.11896" target-y="191.944"></path></g><path d="M 501.26 229.28 C 501.80 233.25 497.31 237.62 494.40 235.15 C 491.01 232.27 497.32 223.83 501.26 229.28 Z" fill="#ffffff" fill-rule="evenodd" group-id="1,6,16,43,89" node-id="291" stroke="none" target-height="13.796005" target-width="10.794952" target-x="491.01" target-y="223.82701"></path></g><g node-id="808"><g node-id="854"><path d="M 403.69 432.65 C 400.02 438.32 417.40 440.35 415.17 434.09 C 414.01 430.82 406.75 431.48 403.69 432.65 Z" fill="#ffffff" fill-rule="evenodd" group-id="1,6,16,44,90" node-id="299" stroke="none" target-height="9.5329895" target-width="17.37503" target-x="400.022" target-y="430.82004"></path></g><path d="M 393.16 437.92 C 394.54 437.55 397.15 436.01 396.18 433.31 C 394.90 429.78 387.49 428.39 384.65 427.29 C 381.21 425.95 375.32 421.87 372.08 424.49 C 367.47 428.25 377.18 432.90 380.58 434.37 C 382.39 435.14 384.24 435.73 385.80 436.31 C 388.48 437.30 390.51 438.65 393.16 437.92 Z" fill="#ffffff" fill-rule="evenodd" group-id="1,6,16,44,91" node-id="304" stroke="none" target-height="16.781036" target-width="29.682037" target-x="367.46796" target-y="421.87296"></path></g></g><path d="M 382.06 375.50 C 387.18 376.13 393.25 370.88 397.21 374.83 C 401.31 378.91 395.04 385.50 394.03 391.12 C 399.61 391.48 405.68 388.91 409.94 393.26 C 414.53 397.94 412.37 412.26 409.39 417.61 C 408.02 413.66 407.77 411.42 407.42 407.41 C 407.20 405.01 408.07 399.22 406.15 397.21 C 401.99 392.88 394.23 399.57 390.25 395.78 C 386.40 392.12 390.58 385.23 392.38 379.86 C 387.76 377.60 380.20 385.75 375.87 382.67 C 371.97 379.92 374.77 375.81 377.04 371.37 C 368.69 374.30 355.70 391.35 348.42 385.36 C 343.95 381.69 347.34 376.09 349.53 371.23 C 342.84 375.79 328.55 393.80 322.98 383.77 C 319.69 377.84 326.90 365.00 334.40 356.02 C 338.90 350.64 346.56 342.12 351.10 345.10 C 356.39 348.56 352.62 354.39 351.04 358.86 C 356.64 357.38 362.04 345.22 367.69 345.82 C 373.63 349.49 368.56 355.09 365.87 359.96 C 363.15 364.91 360.87 369.52 359.44 372.44 C 365.04 370.94 379.57 356.00 385.59 358.13 C 393.13 360.81 386.59 369.98 382.06 375.50 Z M 331.99 375.83 C 336.06 373.48 340.07 368.58 344.13 366.06 C 343.20 362.55 345.72 358.97 346.03 355.43 C 340.48 362.25 334.87 369.07 331.99 375.83 Z" fill="#1a4e72" fill-rule="evenodd" group-id="1,6,17" node-id="311" stroke="none" target-height="75.483" target-width="94.83902" target-x="319.692" target-y="342.122"></path></g></g><g node-id="766"><g node-id="771"><g node-id="782"><path d="M 197.76 330.94 C 204.69 328.20 219.40 325.92 224.50 328.46 C 227.17 329.78 229.40 333.30 230.63 337.30 C 231.79 341.06 232.39 345.20 233.12 350.23 C 235.53 366.70 238.51 383.88 239.74 400.36 C 240.28 407.62 240.70 416.75 238.77 422.76 C 236.59 429.56 228.71 436.81 218.09 434.92 C 214.58 434.29 210.05 432.18 207.07 428.30 C 202.99 423.00 200.47 412.22 199.05 404.49 C 197.60 396.64 196.17 388.64 194.95 378.94 C 193.74 369.32 192.33 360.72 191.48 353.78 C 190.39 344.80 189.16 334.33 197.76 330.94 Z" fill="#b9d5e8" fill-rule="evenodd" group-id="2,7,18" node-id="322" stroke="none" target-height="110.893005" target-width="51.537003" target-x="189.165" target-y="325.922"></path></g><path d="M 209.31 410.71 C 212.71 408.68 216.96 408.83 220.53 408.50 C 224.21 408.15 228.06 407.17 230.95 408.80 C 230.24 413.83 228.04 418.29 226.28 423.51 C 225.81 424.90 225.51 427.69 224.25 428.11 C 222.19 428.79 218.01 422.78 216.51 421.04 C 215.31 419.65 214.03 418.24 212.88 417.00 C 211.09 415.05 209.06 413.34 209.31 410.71 Z" fill="#e24e6a" fill-rule="evenodd" group-id="2,7,19" node-id="327" stroke="none" target-height="21.619995" target-width="21.889008" target-x="209.06" target-y="407.174"></path></g><g node-id="772"><g node-id="784"><path d="M 83.53 65.30 C 91.18 62.93 101.12 61.61 109.21 60.62 C 133.08 57.73 157.80 54.92 182.75 51.23 C 198.73 48.85 215.99 46.09 232.89 43.53 C 248.87 41.10 267.37 37.00 275.11 48.24 C 279.23 54.22 280.77 64.35 282.60 73.25 C 284.44 82.18 285.23 89.45 286.96 98.75 C 291.99 125.94 295.06 148.43 299.13 174.88 C 302.88 199.37 307.25 227.08 309.02 249.39 C 310.32 265.65 311.23 281.38 307.67 294.35 C 304.12 307.24 297.22 318.52 289.47 328.64 C 285.40 333.95 281.10 338.51 276.09 343.14 C 273.57 345.47 271.32 347.85 268.46 349.79 C 260.12 355.48 249.25 361.23 237.64 364.87 C 207.69 374.25 180.05 372.47 158.22 365.37 C 155.06 364.34 152.46 362.77 149.41 361.21 C 143.61 358.26 138.21 355.31 132.75 351.32 C 122.28 343.67 111.88 334.62 104.93 322.68 C 97.96 310.71 93.47 292.60 89.99 273.97 C 86.53 255.48 84.74 240.59 82.81 223.72 C 79.08 191.20 73.97 157.68 70.77 125.10 C 70.04 117.64 68.83 109.05 68.31 100.79 C 67.82 92.93 67.08 84.40 68.71 78.24 C 70.92 69.88 76.21 67.56 83.53 65.30 Z" fill="#14334f" fill-rule="evenodd" group-id="2,8,20" node-id="335" stroke="none" target-height="337.256" target-width="244.14902" target-x="67.081" target-y="36.999"></path></g><g node-id="785"><g node-id="809"><g node-id="856"><path d="M 210.88 352.93 C 208.13 360.98 229.97 358.17 225.34 351.19 C 222.94 347.56 214.27 350.57 210.88 352.93 Z" fill="#ffffff" fill-rule="evenodd" group-id="2,8,21,45,92" node-id="344" stroke="none" target-height="13.427032" target-width="21.838013" target-x="208.134" target-y="347.556"></path></g><path d="M 199.63 362.58 C 201.20 361.70 203.92 359.03 201.91 356.03 C 199.28 352.10 189.80 352.67 186.01 352.19 C 181.39 351.60 172.96 348.40 169.81 352.60 C 165.31 358.58 178.58 361.32 183.19 362.07 C 185.63 362.46 188.07 362.61 190.16 362.85 C 193.73 363.24 196.62 364.29 199.63 362.58 Z" fill="#ffffff" fill-rule="evenodd" group-id="2,8,21,45,93" node-id="349" stroke="none" target-height="15.880035" target-width="38.61" target-x="165.314" target-y="348.40497"></path></g><g node-id="810"><g node-id="858"><path d="M 105.49 291.11 C 109.01 293.54 111.94 300.14 114.42 306.81 C 115.48 309.65 117.13 314.30 114.69 315.54 C 111.75 317.02 109.05 312.05 108.09 310.27 C 105.05 304.62 102.52 297.19 102.33 292.84 C 102.72 291.90 104.33 291.09 105.49 291.11 Z" fill="#ffffff" fill-rule="evenodd" group-id="2,8,21,46,94" node-id="357" stroke="none" target-height="25.925995" target-width="14.804001" target-x="102.328" target-y="291.092"></path></g><g node-id="859"><path d="M 128.83 313.93 C 134.28 309.70 141.41 323.00 136.09 325.13 C 133.79 326.06 127.94 320.92 127.34 317.22 C 127.14 315.90 127.89 314.68 128.83 313.93 Z" fill="#ffffff" fill-rule="evenodd" group-id="2,8,21,46,95" node-id="362" stroke="none" target-height="16.359009" target-width="14.277985" target-x="127.13501" target-y="309.697"></path></g><path d="M 130.68 332.12 C 132.44 330.43 135.70 331.85 138.21 334.35 C 140.24 336.37 143.18 341.15 140.25 342.62 C 138.95 343.27 136.19 342.49 134.05 340.45 C 131.53 338.08 128.40 334.31 130.68 332.12 Z" fill="#ffffff" fill-rule="evenodd" group-id="2,8,21,46,96" node-id="367" stroke="none" target-height="12.846008" target-width="14.782013" target-x="128.4" target-y="330.429"></path></g></g></g><g node-id="773"><g node-id="786"><path d="M 92.08 83.31 C 98.43 81.03 107.38 79.68 114.51 78.59 C 135.93 75.34 156.83 72.90 178.20 69.88 C 198.65 66.98 221.11 63.23 241.89 61.16 C 252.63 60.09 262.11 59.07 266.45 67.85 C 269.06 73.13 270.11 79.92 271.42 86.70 C 272.63 93.00 274.24 99.92 275.41 106.05 C 276.70 112.83 277.30 118.85 278.20 124.88 C 282.75 155.22 288.36 188.34 290.08 217.04 C 290.81 229.16 290.37 239.76 286.11 248.54 C 282.02 256.94 274.54 263.94 266.31 270.23 C 250.07 282.63 225.18 291.29 200.21 294.11 C 176.84 296.75 154.37 294.86 136.43 287.43 C 126.66 283.38 118.86 279.31 112.39 271.43 C 106.12 263.79 102.05 252.18 99.34 237.70 C 94.77 213.27 91.71 187.77 88.30 162.92 C 85.70 144.03 84.19 127.28 82.51 108.27 C 82.08 103.35 81.56 96.27 82.95 91.67 C 84.31 87.18 87.85 84.83 92.08 83.31 Z" fill="#ffffff" fill-rule="evenodd" group-id="2,9,22" node-id="377" stroke="none" target-height="237.67801" target-width="209.24902" target-x="81.559" target-y="59.069"></path></g><g node-id="787"><g node-id="811"><path d="M 258.44 95.96 C 262.79 130.51 266.60 164.72 272.94 200.50 C 252.44 213.67 217.99 219.66 191.75 222.25 C 164.26 224.96 137.99 225.48 116.33 220.18 C 111.68 184.44 107.69 149.09 104.47 114.22 C 117.44 109.38 130.30 104.80 144.08 100.87 C 187.13 88.61 225.42 91.28 258.44 95.96 Z" fill="#b9d5e8" fill-rule="evenodd" group-id="2,9,23,47" node-id="384" stroke="none" target-height="136.87599" target-width="168.479" target-x="104.466" target-y="88.60701"></path></g><g node-id="812"><g node-id="861"><g node-id="878"><path d="M 132.20 122.60 C 135.67 124.11 135.78 129.09 136.22 132.89 C 137.08 140.24 137.85 147.77 137.50 155.48 C 137.35 158.69 136.88 162.97 133.40 163.66 C 129.77 161.36 129.37 156.05 128.64 151.93 C 126.86 141.83 127.33 129.96 130.48 123.81 C 130.66 123.17 131.24 122.76 132.20 122.60 Z" fill="#ffffff" fill-rule="evenodd" group-id="2,9,23,48,97,114" node-id="393" stroke="none" target-height="41.060005" target-width="10.992996" target-x="126.858" target-y="122.602"></path></g><path d="M 137.38 170.36 C 140.76 174.57 141.32 182.82 141.84 189.38 C 142.13 192.97 144.10 205.41 139.32 206.02 C 135.22 206.56 134.03 195.80 133.41 189.35 C 132.70 181.94 131.64 172.16 135.00 170.51 C 135.97 170.04 136.72 170.53 137.38 170.36 Z" fill="#ffffff" fill-rule="evenodd" group-id="2,9,23,48,97,115" node-id="398" stroke="none" target-height="36.520004" target-width="12.464996" target-x="131.64" target-y="170.036"></path></g><g node-id="862"><g node-id="880"><path d="M 150.94 121.01 C 153.74 123.04 153.38 127.44 153.64 130.81 C 154.20 137.82 154.76 144.41 154.95 151.78 C 155.02 154.59 155.78 159.93 152.54 160.37 C 148.23 160.97 147.69 147.21 147.30 143.14 C 146.61 136.02 146.22 127.32 148.46 122.39 C 148.64 121.53 149.73 121.23 150.94 121.01 Z" fill="#ffffff" fill-rule="evenodd" group-id="2,9,23,48,98,116" node-id="406" stroke="none" target-height="39.958" target-width="9.549988" target-x="146.225" target-y="121.008"></path></g><g node-id="881"><path d="M 157.21 120.34 C 159.03 119.17 166.30 118.92 170.88 118.74 C 174.26 118.62 181.60 117.95 181.84 120.99 C 182.02 123.19 178.07 124.12 174.30 124.76 C 169.78 125.53 156.33 126.88 155.46 123.16 C 155.02 121.30 155.98 121.13 157.21 120.34 Z" fill="#ffffff" fill-rule="evenodd" group-id="2,9,23,48,98,117" node-id="411" stroke="none" target-height="8.937988" target-width="26.994003" target-x="155.024" target-y="117.94701"></path></g><g node-id="882"><path d="M 188.51 118.62 C 193.12 116.93 194.93 132.95 195.53 138.25 C 196.37 145.74 197.71 155.93 193.36 156.42 C 189.00 156.90 187.75 144.13 187.00 137.84 C 186.49 133.57 184.33 120.15 188.51 118.62 Z" fill="#ffffff" fill-rule="evenodd" group-id="2,9,23,48,98,118" node-id="416" stroke="none" target-height="39.974007" target-width="13.383026" target-x="184.329" target-y="116.93"></path></g><g node-id="883"><path d="M 157.71 202.90 C 154.75 201.06 153.93 194.69 153.06 189.95 C 151.65 182.21 151.18 173.52 151.87 167.75 C 153.85 166.72 154.42 167.29 155.94 168.00 C 158.32 175.98 158.78 183.73 159.31 190.89 C 159.61 195.09 161.27 200.59 157.71 202.90 Z" fill="#ffffff" fill-rule="evenodd" group-id="2,9,23,48,98,119" node-id="421" stroke="none" target-height="36.179" target-width="10.093002" target-x="151.181" target-y="166.724"></path></g><g node-id="884"><path d="M 195.64 162.70 C 199.60 169.02 200.52 177.70 200.97 187.14 C 201.14 190.76 202.25 200.16 197.65 200.36 C 193.67 200.54 192.00 189.32 191.46 182.55 C 190.86 174.88 190.63 167.68 192.02 164.36 C 192.60 162.96 193.66 162.41 195.64 162.70 Z" fill="#ffffff" fill-rule="evenodd" group-id="2,9,23,48,98,120" node-id="426" stroke="none" target-height="38.125" target-width="11.623001" target-x="190.632" target-y="162.412"></path></g><path d="M 164.56 201.30 C 165.20 200.95 170.23 199.76 173.31 199.25 C 177.99 198.48 189.73 197.01 190.06 200.54 C 190.32 203.30 184.24 204.00 179.77 204.56 C 175.36 205.11 170.89 205.18 168.37 205.62 C 165.75 206.09 163.22 207.69 162.22 205.06 C 161.32 202.65 163.06 202.11 164.56 201.30 Z" fill="#ffffff" fill-rule="evenodd" group-id="2,9,23,48,98,121" node-id="431" stroke="none" target-height="10.679993" target-width="29.007996" target-x="161.317" target-y="197.01402"></path></g><g node-id="863"><g node-id="886"><path d="M 241.35 112.75 C 241.08 115.61 237.07 115.72 234.57 116.34 C 225.36 118.66 213.41 121.21 207.42 118.70 C 206.38 114.76 213.96 114.13 218.97 113.18 C 222.65 112.49 227.15 111.94 231.04 111.56 C 235.34 111.13 239.91 110.51 241.35 112.75 Z" fill="#ffffff" fill-rule="evenodd" group-id="2,9,23,48,99,122" node-id="439" stroke="none" target-height="10.693008" target-width="34.974" target-x="206.377" target-y="110.51499"></path></g><g node-id="887"><path d="M 207.29 121.54 C 209.58 125.85 209.84 132.03 210.92 138.75 C 211.58 142.85 214.96 153.20 210.12 154.19 C 206.44 154.94 205.79 148.44 205.05 144.54 C 203.63 137.00 202.56 126.50 204.25 122.25 C 204.59 120.88 206.20 121.33 207.29 121.54 Z" fill="#ffffff" fill-rule="evenodd" group-id="2,9,23,48,99,123" node-id="444" stroke="none" target-height="34.062996" target-width="12.395996" target-x="202.56" target-y="120.876"></path></g><g node-id="888"><path d="M 213.24 155.47 C 217.27 153.52 225.52 153.19 231.86 152.70 C 235.75 152.40 247.04 149.81 247.68 153.41 C 248.24 156.60 240.25 157.86 235.66 158.64 C 233.24 159.05 226.75 159.87 221.98 160.24 C 217.99 160.55 210.95 161.06 210.35 158.55 C 209.76 156.13 211.29 156.40 213.24 155.47 Z" fill="#ffffff" fill-rule="evenodd" group-id="2,9,23,48,99,124" node-id="449" stroke="none" target-height="11.25" target-width="38.475998" target-x="209.763" target-y="149.812"></path></g><g node-id="889"><path d="M 251.32 156.97 C 254.82 161.61 254.44 169.59 255.11 176.55 C 255.41 179.60 255.84 183.40 256.29 186.71 C 256.66 189.53 258.00 194.44 253.71 194.54 C 250.95 193.46 251.06 189.25 250.24 184.92 C 248.54 175.79 245.78 162.87 247.70 158.62 C 248.33 157.23 249.18 156.69 251.32 156.97 Z" fill="#ffffff" fill-rule="evenodd" group-id="2,9,23,48,99,125" node-id="454" stroke="none" target-height="37.854996" target-width="12.228012" target-x="245.777" target-y="156.686"></path></g><path d="M 215.40 195.50 C 218.93 193.34 226.87 193.12 234.31 192.27 C 238.93 191.74 249.53 190.15 249.63 194.29 C 249.73 198.04 235.16 199.30 231.26 199.81 C 228.08 200.22 215.13 202.32 213.54 199.55 C 212.08 196.98 213.88 196.43 215.40 195.50 Z" fill="#ffffff" fill-rule="evenodd" group-id="2,9,23,48,99,126" node-id="459" stroke="none" target-height="12.173004" target-width="37.654022" target-x="212.077" target-y="190.148"></path></g></g></g><g node-id="788"><g node-id="813"><path d="M 163.20 248.15 C 164.87 251.74 164.28 255.95 164.24 259.54 C 164.21 263.23 164.78 267.16 162.88 269.87 C 157.94 268.65 153.74 266.01 148.72 263.72 C 147.38 263.11 144.63 262.52 144.35 261.23 C 143.88 259.10 150.29 255.57 152.18 254.25 C 153.68 253.20 155.22 252.07 156.57 251.05 C 158.69 249.47 160.60 247.63 163.20 248.15 Z" fill="#e24e6a" fill-rule="evenodd" group-id="2,9,24,49" node-id="469" stroke="none" target-height="22.238968" target-width="20.987" target-x="143.882" target-y="247.62602"></path></g><g node-id="814"><path d="M 236.31 238.61 C 234.76 242.24 235.48 246.44 235.63 250.02 C 235.79 253.71 235.34 257.66 237.33 260.30 C 242.23 258.92 246.35 256.14 251.28 253.69 C 252.60 253.04 255.33 252.36 255.57 251.06 C 255.97 248.93 249.45 245.60 247.51 244.35 C 245.98 243.35 244.41 242.27 243.02 241.29 C 240.85 239.78 238.89 238.00 236.31 238.61 Z" fill="#e24e6a" fill-rule="evenodd" group-id="2,9,24,50" node-id="474" stroke="none" target-height="22.297012" target-width="21.212997" target-x="234.757" target-y="238.002"></path></g><path d="M 195.71 248.37 C 202.65 245.14 210.21 249.94 209.36 258.15 C 208.87 263.01 203.94 267.28 198.90 266.56 C 196.29 266.18 192.72 263.82 191.37 261.02 C 188.74 255.57 191.66 250.26 195.71 248.37 Z" fill="#e24e6a" fill-rule="evenodd" group-id="2,9,24,51" node-id="479" stroke="none" target-height="22.143982" target-width="21.465988" target-x="188.74301" target-y="245.139"></path></g></g></g><g node-id="767"><g node-id="774"><g node-id="789"><path d="M 146.16 407.04 C 139.86 409.50 133.86 412.30 127.46 414.68 C 126.14 409.77 123.65 404.88 121.41 399.66 C 114.96 384.72 108.85 369.19 102.45 353.84 C 85.78 313.90 68.71 272.87 51.61 232.42 C 45.46 217.85 38.88 202.33 32.39 186.86 C 31.32 184.32 30.59 182.14 29.49 178.96 C 28.55 176.22 27.19 172.97 27.65 170.27 C 28.27 166.57 33.66 163.59 37.66 163.16 C 38.57 163.06 40.89 163.04 41.87 163.42 C 45.38 164.78 47.94 172.39 50.04 177.12 C 61.45 202.88 71.18 227.81 82.17 253.76 C 103.77 304.78 125.15 356.82 146.16 407.04 Z" fill="#b9d5e8" fill-rule="evenodd" group-id="3,10,25" node-id="491" stroke="none" target-height="251.639" target-width="118.966995" target-x="27.194" target-y="163.038"></path></g><g node-id="790"><path d="M 43.85 172.39 C 46.54 173.23 48.93 180.23 50.55 184.02 C 59.63 205.52 67.85 226.74 76.54 248.40 C 81.86 261.64 86.60 274.31 91.89 287.28 C 93.69 291.68 94.97 296.24 96.60 300.65 C 99.83 309.41 103.90 317.81 107.25 326.16 C 109.01 330.56 110.69 334.88 112.45 339.03 C 115.77 346.91 118.45 353.82 121.61 362.06 C 121.70 362.28 121.41 362.43 121.61 362.81 C 122.26 364.02 122.55 365.60 123.34 367.76 C 124.09 369.79 125.93 372.31 124.08 374.44 C 121.18 374.43 120.73 371.10 119.87 369.24 C 118.55 366.38 117.09 364.15 115.91 360.82 C 115.46 359.54 114.10 356.95 113.19 354.88 C 109.83 347.22 106.42 338.87 103.04 331.11 C 101.03 326.51 98.75 321.12 96.60 316.00 C 95.68 313.84 95.05 311.50 94.12 309.32 C 93.32 307.43 92.17 305.73 91.40 303.87 C 90.48 301.65 89.80 299.34 88.92 297.18 C 86.62 291.52 84.03 285.89 81.74 280.35 C 69.63 250.95 58.16 218.91 46.83 186.99 C 45.27 182.63 42.27 176.51 43.11 172.63 C 43.14 172.43 43.93 171.88 43.85 172.39 Z" fill="#ffffff" fill-rule="evenodd" group-id="3,10,26" node-id="496" stroke="none" target-height="202.564" target-width="83.65801" target-x="42.267" target-y="171.879"></path></g><g node-id="791"><g node-id="816"><path d="M 35.72 176.80 C 35.47 176.18 34.73 175.87 34.12 176.13 L 29.22 178.19 C 29.31 178.45 29.40 178.71 29.49 178.96 C 29.68 179.51 29.86 180.03 30.03 180.53 L 35.07 178.41 C 35.69 178.16 35.98 177.42 35.72 176.80 Z" fill="#1a4e72" fill-rule="nonzero" group-id="3,10,27,52" node-id="503" stroke="none" target-height="4.6610107" target-width="6.764002" target-x="29.220999" target-y="175.873"></path></g><g node-id="817"><path d="M 40.90 189.11 C 40.63 188.47 39.93 188.18 39.27 188.44 L 33.98 190.66 C 34.30 191.42 34.62 192.18 34.94 192.94 L 40.24 190.72 C 40.87 190.45 41.17 189.73 40.90 189.11 Z" fill="#1a4e72" fill-rule="nonzero" group-id="3,10,27,53" node-id="508" stroke="none" target-height="4.7670135" target-width="7.1900024" target-x="33.981" target-y="188.176"></path></g><g node-id="818"><path d="M 46.08 201.41 C 45.81 200.77 45.09 200.48 44.45 200.74 L 39.17 202.97 C 39.48 203.72 39.81 204.49 40.12 205.25 L 45.42 203.01 C 46.05 202.77 46.34 202.04 46.08 201.41 Z" fill="#1a4e72" fill-rule="nonzero" group-id="3,10,27,54" node-id="513" stroke="none" target-height="4.7660217" target-width="7.1759987" target-x="39.167" target-y="200.48398"></path></g><g node-id="819"><path d="M 51.25 213.70 C 50.99 213.08 50.26 212.77 49.62 213.06 L 44.36 215.26 C 44.68 216.03 45.00 216.79 45.33 217.56 L 50.60 215.34 C 51.23 215.07 51.51 214.35 51.25 213.70 Z" fill="#1a4e72" fill-rule="nonzero" group-id="3,10,27,55" node-id="518" stroke="none" target-height="4.7859955" target-width="7.1520004" target-x="44.361" target-y="212.772"></path></g><g node-id="820"><path d="M 56.44 226.02 C 56.16 225.39 55.43 225.09 54.81 225.34 L 49.56 227.56 C 49.88 228.33 50.20 229.09 50.53 229.86 L 55.77 227.65 C 56.41 227.36 56.70 226.65 56.44 226.02 Z" fill="#1a4e72" fill-rule="nonzero" group-id="3,10,27,56" node-id="523" stroke="none" target-height="4.7620087" target-width="7.140007" target-x="49.556995" target-y="225.094"></path></g><g node-id="821"><path d="M 61.60 238.32 C 61.34 237.70 60.62 237.40 59.97 237.67 L 54.75 239.87 C 55.08 240.63 55.39 241.39 55.72 242.15 L 60.95 239.95 C 61.58 239.69 61.87 238.95 61.60 238.32 Z" fill="#1a4e72" fill-rule="nonzero" group-id="3,10,27,57" node-id="528" stroke="none" target-height="4.7470093" target-width="7.1229973" target-x="54.751003" target-y="237.402"></path></g><g node-id="822"><path d="M 66.77 250.64 C 66.52 249.99 65.78 249.71 65.16 249.97 L 59.94 252.17 C 60.26 252.93 60.58 253.69 60.90 254.45 L 66.12 252.25 C 66.76 251.99 67.04 251.24 66.77 250.64 Z" fill="#1a4e72" fill-rule="nonzero" group-id="3,10,27,58" node-id="533" stroke="none" target-height="4.7420044" target-width="7.1089973" target-x="59.935" target-y="249.70999"></path></g><g node-id="823"><path d="M 72.14 262.94 C 71.86 262.31 71.16 262.01 70.50 262.27 L 65.13 264.53 C 65.45 265.29 65.77 266.05 66.09 266.81 L 71.47 264.55 C 72.10 264.28 72.40 263.57 72.14 262.94 Z" fill="#1a4e72" fill-rule="nonzero" group-id="3,10,27,59" node-id="538" stroke="none" target-height="4.799988" target-width="7.2699966" target-x="65.133" target-y="262.013"></path></g><g node-id="824"><path d="M 77.31 275.25 C 77.05 274.61 76.32 274.31 75.69 274.57 L 70.30 276.84 C 70.61 277.60 70.93 278.37 71.25 279.12 L 76.66 276.85 C 77.28 276.61 77.58 275.87 77.31 275.25 Z" fill="#1a4e72" fill-rule="nonzero" group-id="3,10,27,60" node-id="543" stroke="none" target-height="4.8049927" target-width="7.2789993" target-x="70.297" target-y="274.315"></path></g><g node-id="825"><path d="M 82.49 287.54 C 82.22 286.91 81.50 286.61 80.85 286.89 L 75.45 289.16 C 75.77 289.92 76.09 290.69 76.41 291.45 L 81.83 289.17 C 82.46 288.91 82.75 288.18 82.49 287.54 Z" fill="#1a4e72" fill-rule="nonzero" group-id="3,10,27,61" node-id="548" stroke="none" target-height="4.842987" target-width="7.295006" target-x="75.45" target-y="286.609"></path></g><g node-id="826"><path d="M 87.67 299.85 C 87.40 299.22 86.67 298.93 86.04 299.18 L 80.60 301.48 C 80.92 302.24 81.23 303.00 81.56 303.78 L 87.00 301.48 C 87.64 301.20 87.92 300.48 87.67 299.85 Z" fill="#1a4e72" fill-rule="nonzero" group-id="3,10,27,62" node-id="553" stroke="none" target-height="4.8480225" target-width="7.3250046" target-x="80.6" target-y="298.93"></path></g><g node-id="827"><path d="M 92.83 312.15 C 92.57 311.53 91.85 311.23 91.20 311.50 L 85.74 313.80 C 86.06 314.56 86.38 315.33 86.70 316.09 L 92.18 313.78 C 92.81 313.53 93.11 312.79 92.83 312.15 Z" fill="#1a4e72" fill-rule="nonzero" group-id="3,10,27,63" node-id="558" stroke="none" target-height="4.8580017" target-width="7.3690033" target-x="85.74" target-y="311.228"></path></g><g node-id="828"><path d="M 98.00 324.47 C 97.75 323.82 97.01 323.55 96.39 323.80 L 90.88 326.12 C 91.20 326.89 91.52 327.65 91.84 328.41 L 97.35 326.10 C 98.00 325.83 98.28 325.08 98.00 324.47 Z" fill="#1a4e72" fill-rule="nonzero" group-id="3,10,27,64" node-id="563" stroke="none" target-height="4.8680115" target-width="7.397003" target-x="90.882" target-y="323.546"></path></g><g node-id="829"><path d="M 103.22 336.77 C 102.95 336.15 102.24 335.84 101.59 336.11 L 96.02 338.45 C 96.34 339.20 96.66 339.97 96.98 340.73 L 102.55 338.39 C 103.19 338.12 103.49 337.40 103.22 336.77 Z" fill="#1a4e72" fill-rule="nonzero" group-id="3,10,27,65" node-id="568" stroke="none" target-height="4.8869934" target-width="7.463997" target-x="96.023" target-y="335.844"></path></g><g node-id="830"><path d="M 108.39 349.08 C 108.13 348.44 107.40 348.15 106.77 348.41 L 101.16 350.76 C 101.48 351.53 101.80 352.29 102.12 353.05 L 107.74 350.68 C 108.37 350.44 108.65 349.71 108.39 349.08 Z" fill="#1a4e72" fill-rule="nonzero" group-id="3,10,27,66" node-id="573" stroke="none" target-height="4.901001" target-width="7.489998" target-x="101.164" target-y="348.147"></path></g><g node-id="831"><path d="M 113.57 361.38 C 113.31 360.75 112.58 360.44 111.94 360.72 L 106.27 363.10 C 106.58 363.87 106.91 364.63 107.22 365.40 L 112.92 363.00 C 113.54 362.74 113.83 362.01 113.57 361.38 Z" fill="#1a4e72" fill-rule="nonzero" group-id="3,10,27,67" node-id="578" stroke="none" target-height="4.958008" target-width="7.564995" target-x="106.267006" target-y="360.44"></path></g><g node-id="832"><path d="M 118.75 373.68 C 118.48 373.06 117.75 372.77 117.12 373.01 L 111.33 375.46 C 111.64 376.23 111.95 377.00 112.27 377.76 L 118.08 375.32 C 118.72 375.03 119.01 374.32 118.75 373.68 Z" fill="#1a4e72" fill-rule="nonzero" group-id="3,10,27,68" node-id="583" stroke="none" target-height="4.9970093" target-width="7.6849976" target-x="111.328" target-y="372.767"></path></g><g node-id="833"><path d="M 123.92 385.99 C 123.66 385.36 122.94 385.06 122.29 385.33 L 116.41 387.81 C 116.72 388.58 117.04 389.33 117.37 390.10 L 123.27 387.62 C 123.90 387.36 124.19 386.62 123.92 385.99 Z" fill="#1a4e72" fill-rule="nonzero" group-id="3,10,27,69" node-id="588" stroke="none" target-height="5.0360413" target-width="7.788002" target-x="116.405" target-y="385.065"></path></g><path d="M 129.08 398.30 C 128.84 397.66 128.09 397.38 127.47 397.64 L 121.60 400.11 C 121.93 400.87 122.27 401.63 122.61 402.37 L 128.44 399.93 C 129.08 399.66 129.36 398.91 129.08 398.30 Z" fill="#1a4e72" fill-rule="nonzero" group-id="3,10,27,70" node-id="593" stroke="none" target-height="4.9920044" target-width="7.757004" target-x="121.603" target-y="397.382"></path></g></g><g node-id="775"><g node-id="792"><g node-id="835"><path d="M 17.55 151.65 C 16.69 149.80 17.49 147.59 19.33 146.73 L 28.40 142.47 C 30.25 141.61 32.44 142.40 33.32 144.25 L 39.77 157.94 C 40.62 159.79 39.84 162.01 37.98 162.87 L 28.91 167.12 C 27.06 168.00 24.86 167.20 23.99 165.36 L 17.55 151.65 Z" fill="#e24e6a" fill-rule="nonzero" group-id="3,11,28,71" node-id="604" stroke="none" target-height="26.39" target-width="23.936" target-x="16.688" target-y="141.607"></path></g><path d="M 16.62 136.94 C 16.47 135.94 16.98 134.94 17.92 134.48 L 20.26 133.40 C 21.23 132.94 22.37 133.22 23.03 134.02 C 23.16 134.16 29.04 142.30 29.04 142.30 C 29.59 143.46 29.10 144.86 27.93 145.38 L 22.26 148.05 C 21.10 148.59 19.72 148.10 19.17 146.94 C 19.17 146.94 16.65 137.15 16.62 136.94" fill="#e24e6a" fill-rule="nonzero" group-id="3,11,28,72" node-id="609" stroke="none" target-height="15.653992" target-width="13.124001" target-x="16.469" target-y="132.94"></path></g><g node-id="793"><g node-id="837"><path d="M 18.52 134.96 L 20.26 134.13 L 0.61 93.81 L 0.61 93.81 C 0.51 93.67 0.34 93.61 0.19 93.68 C 0.02 93.75 -0.03 93.93 0.02 94.09 L 0.01 94.09 L 18.52 134.96 Z" fill="#1a4e72" fill-rule="nonzero" group-id="3,11,29,73" node-id="617" stroke="none" target-height="41.356003" target-width="20.297" target-x="-0.033" target-y="93.606"></path></g><path d="M 17.27 134.79 C 17.08 134.38 17.25 133.90 17.67 133.70 L 19.82 132.69 C 20.24 132.50 20.72 132.67 20.90 133.08 C 21.11 133.50 20.93 133.98 20.53 134.16 L 18.36 135.20 C 17.95 135.38 17.46 135.21 17.27 134.79" fill="#1a4e72" fill-rule="nonzero" group-id="3,11,29,74" node-id="622" stroke="none" target-height="2.876999" target-width="4.0230007" target-x="17.084" target-y="132.501"></path></g><path d="M 21.22 170.20 C 20.73 169.17 21.18 167.93 22.22 167.45 L 42.70 157.83 C 43.74 157.35 44.98 157.77 45.46 158.81 C 45.94 159.85 45.51 161.06 44.46 161.57 L 23.96 171.19 C 22.94 171.69 21.71 171.25 21.22 170.20" fill="#e24e6a" fill-rule="nonzero" group-id="3,11,30" node-id="628" stroke="none" target-height="14.339996" target-width="25.213001" target-x="20.728" target-y="157.347"></path></g><g node-id="776"><g node-id="795"><path d="M 150.64 411.52 C 154.66 411.94 158.73 410.72 161.44 412.83 C 163.49 414.43 164.62 417.73 165.92 420.47 C 169.63 428.30 173.71 438.47 176.19 446.54 C 177.67 445.96 180.67 445.15 182.25 446.28 C 185.39 451.34 176.18 453.88 171.71 455.76 C 161.18 460.21 150.03 465.06 139.05 469.46 C 136.03 470.67 129.96 473.05 129.31 468.93 C 128.75 465.40 133.17 464.67 134.31 463.66 C 132.54 459.52 130.51 454.02 128.25 448.39 C 126.18 443.20 123.53 437.47 122.99 432.58 C 122.36 426.96 124.42 424.78 127.20 422.05 C 125.05 422.75 122.93 423.85 120.35 424.69 C 118.11 425.41 115.05 426.60 112.72 426.26 C 111.29 426.06 109.67 424.83 109.55 423.63 C 109.26 420.59 116.28 417.88 120.09 415.99 C 127.79 412.18 136.78 407.56 144.85 404.40 C 149.51 402.58 155.30 400.81 158.81 400.19 C 161.37 399.74 163.07 400.60 163.29 401.77 C 163.77 404.49 159.51 406.43 157.75 407.57 C 155.14 409.25 153.32 410.63 150.64 411.52 Z" fill="#e24e6a" fill-rule="evenodd" group-id="3,12,31" node-id="636" stroke="none" target-height="73.31305" target-width="76.133995" target-x="109.26" target-y="399.735"></path></g><g node-id="796"><g node-id="839"><g node-id="864"><path d="M 130.55 440.36 C 127.60 439.72 129.49 447.31 131.76 445.39 C 132.95 444.39 131.53 441.46 130.55 440.36 Z" fill="#ffffff" fill-rule="evenodd" group-id="3,12,32,75,100" node-id="645" stroke="none" target-height="7.5939636" target-width="5.345001" target-x="127.601" target-y="439.72003"></path></g><path d="M 126.69 436.78 C 127.06 437.30 128.12 438.15 129.10 437.31 C 130.37 436.23 129.78 432.91 129.80 431.55 C 129.82 429.89 130.60 426.79 128.99 425.85 C 126.69 424.50 126.27 429.29 126.20 430.95 C 126.16 431.84 126.20 432.70 126.20 433.44 C 126.21 434.72 125.96 435.78 126.69 436.78 Z" fill="#ffffff" fill-rule="evenodd" group-id="3,12,32,75,101" node-id="650" stroke="none" target-height="13.646973" target-width="4.643997" target-x="125.957" target-y="424.50302"></path></g><g node-id="840"><g node-id="866"><path d="M 169.75 438.89 C 168.95 440.58 169.28 443.72 169.80 446.78 C 170.03 448.09 170.41 450.20 171.61 450.13 C 173.04 450.06 172.98 447.59 172.95 446.70 C 172.87 443.90 172.20 440.54 171.32 438.86 C 170.97 438.59 170.19 438.64 169.75 438.89 Z" fill="#ffffff" fill-rule="evenodd" group-id="3,12,32,76,102" node-id="658" stroke="none" target-height="11.615967" target-width="4.0850067" target-x="168.954" target-y="438.58704"></path></g><path d="M 166.81 447.09 C 163.83 446.68 164.04 453.27 166.52 452.91 C 167.59 452.76 168.68 449.54 168.10 448.01 C 167.89 447.47 167.33 447.16 166.81 447.09 Z" fill="#ffffff" fill-rule="evenodd" group-id="3,12,32,76,103" node-id="663" stroke="none" target-height="6.5859985" target-width="4.852997" target-x="163.828" target-y="446.68497"></path></g></g></g></g><g node-id="768"><g node-id="777"><g node-id="797"><path d="M 315.50 115.36 C 333.12 116.48 349.44 119.21 364.87 123.07 C 364.67 126.19 364.26 128.67 363.95 131.39 C 363.65 133.91 362.90 137.06 363.87 140.14 C 365.26 144.57 373.02 146.13 375.80 149.67 C 377.41 151.71 378.86 154.65 378.99 159.12 C 379.05 161.49 378.50 163.99 378.23 166.63 C 377.53 173.62 376.18 181.22 375.12 188.44 C 371.57 212.50 367.82 236.43 362.95 259.51 C 361.92 264.41 361.21 269.19 359.39 272.63 C 357.81 275.61 354.14 279.42 351.55 280.67 C 345.80 283.42 337.24 282.23 331.25 281.62 C 323.82 280.86 318.47 279.65 312.65 278.93 C 306.83 278.22 300.42 277.23 294.27 275.70 C 288.78 274.34 282.31 272.37 279.17 268.65 C 273.83 262.32 274.68 253.11 275.57 243.61 C 276.04 238.59 276.83 233.50 277.38 229.09 C 280.41 205.13 284.22 181.50 288.21 157.91 C 288.58 155.70 289.12 153.34 289.57 151.13 C 290.84 144.91 292.65 139.36 298.02 136.67 C 302.02 134.67 307.59 135.16 310.29 132.64 C 313.72 129.44 313.29 121.15 315.50 115.36 Z" fill="#f6bd4a" fill-rule="evenodd" group-id="4,13,33" node-id="676" stroke="none" target-height="168.058" target-width="105.218994" target-x="273.831" target-y="115.35899"></path></g><g node-id="798"><g node-id="841"><path d="M 290.82 176.44 C 290.01 171.22 292.43 162.57 296.65 162.27 C 300.05 162.01 303.44 162.95 306.86 163.50 C 325.96 166.64 344.98 170.09 363.16 176.27 C 366.14 177.28 369.90 178.61 370.55 180.74 C 371.08 182.51 370.41 185.76 370.00 187.69 C 368.61 194.26 363.13 193.43 356.45 192.13 C 347.06 190.30 337.14 187.40 327.91 185.79 C 317.98 184.06 308.48 182.50 298.68 180.33 C 295.80 179.69 292.64 178.94 290.82 176.44 Z" fill="#1a4e72" fill-rule="evenodd" group-id="4,13,34,77" node-id="683" stroke="none" target-height="32.24901" target-width="81.06903" target-x="290.012" target-y="162.015"></path></g><g node-id="842"><g node-id="868"><path d="M 293.24 212.21 C 307.60 214.59 321.04 217.39 335.19 219.96 C 338.93 220.63 343.87 221.20 348.63 221.63 C 350.27 221.78 356.11 223.29 356.46 220.48 C 356.61 219.27 354.70 218.03 353.19 217.40 C 350.68 216.36 351.01 216.82 348.54 216.07 C 333.03 211.35 316.22 207.92 300.13 205.07 C 293.99 203.99 287.44 202.59 281.04 202.62 C 280.69 204.91 280.36 207.20 280.04 209.50 C 281.07 209.77 282.08 209.99 282.95 210.18 C 286.81 211.03 290.37 211.73 293.24 212.21 Z" fill="#1a4e72" fill-rule="nonzero" group-id="4,13,34,78,104" node-id="690" stroke="none" target-height="20.699005" target-width="76.56998" target-x="280.036" target-y="202.59"></path></g><g node-id="869"><path d="M 308.51 230.11 C 311.95 230.63 319.94 232.16 319.99 228.55 C 320.03 225.75 314.30 224.63 310.71 223.76 C 303.02 221.91 294.61 220.65 287.44 219.48 C 285.20 219.12 281.79 218.18 278.86 217.96 C 278.60 219.84 278.35 221.73 278.10 223.62 C 278.19 223.63 278.27 223.66 278.37 223.68 C 288.36 226.43 297.80 228.49 308.51 230.11 Z" fill="#1a4e72" fill-rule="nonzero" group-id="4,13,34,78,105" node-id="695" stroke="none" target-height="14.207993" target-width="41.931" target-x="278.099" target-y="217.957"></path></g><path d="M 338.05 250.12 C 339.67 250.32 346.89 251.33 347.44 248.80 C 348.20 245.32 342.15 244.49 340.54 244.00 C 331.35 241.24 322.25 239.66 313.11 238.07 C 303.57 236.41 294.45 234.62 284.28 233.88 C 282.13 233.73 279.26 233.45 276.79 233.54 C 276.46 235.96 276.13 238.48 275.84 241.03 C 280.77 241.86 285.85 242.34 290.87 242.95 C 307.17 244.96 321.46 248.01 338.05 250.12 Z" fill="#1a4e72" fill-rule="nonzero" group-id="4,13,34,78,106" node-id="700" stroke="none" target-height="17.876007" target-width="72.357025" target-x="275.843" target-y="233.452"></path></g></g></g><g node-id="778"><g node-id="799"><g node-id="843"><path d="M 304.51 88.23 C 307.54 87.20 313.33 87.87 316.98 88.42 C 335.94 91.29 330.84 93.85 348.94 99.10 C 350.65 99.60 372.97 100.65 375.44 101.44 C 380.07 102.91 384.96 105.05 386.02 108.50 C 386.96 111.54 385.53 116.80 384.85 119.23 C 384.23 121.47 382.79 126.40 380.75 127.65 C 378.05 129.31 373.20 128.41 369.61 127.58 C 359.01 125.11 349.66 122.77 338.67 120.98 C 327.54 119.16 318.00 117.96 307.48 114.67 C 303.93 113.56 300.19 112.27 298.94 109.53 C 298.16 107.79 298.56 105.76 298.80 103.46 C 299.45 97.05 299.26 90.03 304.51 88.23 Z" fill="#e24e6a" fill-rule="evenodd" group-id="4,14,35,79" node-id="712" stroke="none" target-height="42.112" target-width="88.80301" target-x="298.158" target-y="87.203"></path></g><path d="M 314.06 90.61 C 314.14 92.57 317.67 94.16 319.85 95.00 C 322.73 96.11 325.38 96.68 327.53 97.31 C 338.05 100.44 347.83 102.84 359.61 104.58 C 362.08 104.95 375.61 107.94 376.19 103.52 C 376.29 102.75 376.03 102.08 375.56 101.48 C 373.05 100.68 370.59 100.07 368.86 99.56 C 350.76 94.32 335.94 91.29 316.98 88.42 C 316.62 88.37 316.23 88.32 315.83 88.26 C 314.73 88.65 313.99 89.14 314.06 90.61 Z" fill="#ff8c9c" fill-rule="nonzero" group-id="4,14,35,80" node-id="717" stroke="none" target-height="19.672997" target-width="62.300995" target-x="313.989" target-y="88.263"></path></g><g node-id="800"><g node-id="845"><g node-id="871"><path d="M 323.28 272.65 C 325.51 271.28 329.92 271.27 334.24 271.51 C 336.10 271.62 339.10 271.84 339.19 273.51 C 339.30 275.52 335.86 275.80 334.63 275.90 C 330.73 276.22 325.94 275.80 323.47 274.84 C 323.05 274.39 322.99 273.30 323.28 272.65 Z" fill="#ffffff" fill-rule="evenodd" group-id="4,14,36,81,107" node-id="727" stroke="none" target-height="4.9539795" target-width="16.31601" target-x="322.987" target-y="271.268"></path></g><g node-id="872"><path d="M 339.15 268.27 C 338.12 264.19 347.31 263.47 347.20 266.97 C 347.14 268.48 342.83 270.49 340.62 269.91 C 339.83 269.70 339.33 268.98 339.15 268.27 Z" fill="#ffffff" fill-rule="evenodd" group-id="4,14,36,81,108" node-id="732" stroke="none" target-height="7.017975" target-width="9.191986" target-x="338.118" target-y="263.467"></path></g><path d="M 348.98 274.16 C 348.02 273.00 349.02 271.08 350.66 269.66 C 351.98 268.53 355.02 266.94 355.79 268.79 C 356.13 269.61 355.53 271.26 354.20 272.47 C 352.64 273.89 350.21 275.64 348.98 274.16 Z" fill="#ffffff" fill-rule="evenodd" group-id="4,14,36,81,109" node-id="737" stroke="none" target-height="8.698029" target-width="8.109009" target-x="348.018" target-y="266.942"></path></g><g node-id="846"><g node-id="874"><path d="M 310.30 142.26 C 310.62 144.62 301.66 144.47 301.34 142.74 C 300.82 139.94 310.27 140.20 310.30 142.26 Z" fill="#ffffff" fill-rule="evenodd" group-id="4,14,36,82,110" node-id="745" stroke="none" target-height="4.675003" target-width="9.798004" target-x="300.822" target-y="139.943"></path></g><path d="M 313.70 141.88 C 314.91 140.95 318.90 141.65 321.93 142.02 C 334.00 143.48 345.54 145.89 356.67 149.25 C 358.49 149.80 360.60 150.45 363.01 151.46 C 364.76 152.18 368.07 153.31 367.70 155.43 C 367.25 157.91 362.70 156.51 361.15 156.16 C 349.28 153.52 338.73 150.38 326.50 147.34 C 324.68 146.87 322.22 146.45 319.43 145.74 C 317.04 145.14 311.90 144.27 313.70 141.88 Z" fill="#ffffff" fill-rule="evenodd" group-id="4,14,36,82,111" node-id="750" stroke="none" target-height="16.957" target-width="56.17401" target-x="311.901" target-y="140.953"></path></g><g node-id="847"><g node-id="876"><path d="M 316.79 96.40 C 318.09 94.42 309.95 90.68 308.92 92.10 C 307.24 94.39 315.86 98.25 316.79 96.40 Z" fill="#ffffff" fill-rule="evenodd" group-id="4,14,36,83,112" node-id="758" stroke="none" target-height="7.5719986" target-width="10.858002" target-x="307.235" target-y="90.676"></path></g><path d="M 319.69 98.22 C 320.37 99.58 324.28 100.68 327.17 101.66 C 338.68 105.56 350.13 108.38 361.61 110.16 C 363.50 110.45 365.68 110.78 368.28 110.92 C 370.18 111.01 373.66 111.43 374.23 109.36 C 374.90 106.93 370.19 106.22 368.65 105.87 C 356.81 103.12 345.93 101.39 333.59 98.84 C 331.75 98.46 329.34 97.78 326.52 97.22 C 324.11 96.73 319.10 95.29 319.69 98.22 Z" fill="#ffffff" fill-rule="evenodd" group-id="4,14,36,83,113" node-id="763" stroke="none" target-height="16.141998" target-width="55.804016" target-x="319.099" target-y="95.287"></path></g></g></g></g></svg>